<svg xmlns="http://www.w3.org/2000/svg" viewBox="0 0 200 231" width="200" height="231" preserveAspectRatio="xMidYMid slice">
<defs><linearGradient id="g" x1="0" y1="0" x2=".55" y2="1"><stop offset="0" stop-color="#4e5c37"/><stop offset=".55" stop-color="#354528"/><stop offset="1" stop-color="#222f1f"/></linearGradient></defs>
<rect width="200" height="231" fill="url(#g)"/>
<g fill="none" stroke="#151f14" stroke-width="2.0" stroke-linecap="round" stroke-linejoin="round" opacity="0.5">
<path d="M21.0 34.6 q-2.3 -17.5 -5.8 -31.9"/>
<path d="M15.2 2.7 l0 8.3" stroke-width="3.4"/>
<path d="M47.6 15.3 q0.8 -12.5 2.0 -22.7"/>
<path d="M49.6 -7.4 l0 5.9" stroke-width="3.4"/>
<path d="M105.2 33.4 q-1.4 -17.6 -3.4 -32.0"/>
<path d="M101.8 1.4 l0 8.3" stroke-width="3.4"/>
<path d="M139.0 24.7 q0.4 -15.2 1.1 -27.6"/>
<path d="M140.0 -2.8 l0 7.2" stroke-width="3.4"/>
<path d="M193.7 27.7 q1.0 -14.1 2.6 -25.6"/>
<path d="M196.3 2.1 l0 6.7" stroke-width="3.4"/>
<path d="M42.9 41.8 q1.3 -16.7 3.4 -30.4"/>
<path d="M46.3 11.4 l0 7.9" stroke-width="3.4"/>
<path d="M78.1 71.5 q1.5 -14.2 3.7 -25.8"/>
<path d="M81.8 45.8 l0 6.7" stroke-width="3.4"/>
<path d="M124.0 49.0 q0.8 -13.8 2.1 -25.2"/>
<path d="M126.1 23.8 l0 6.5" stroke-width="3.4"/>
<path d="M170.5 64.3 q-0.8 -14.9 -2.0 -27.1"/>
<path d="M168.5 37.1 l0 7.0" stroke-width="3.4"/>
<path d="M187.3 55.7 q-0.7 -12.9 -1.8 -23.4"/>
<path d="M185.6 32.3 l0 6.1" stroke-width="3.4"/>
<path d="M36.1 101.5 q0.3 -13.3 0.7 -24.2"/>
<path d="M36.8 77.3 l0 6.3" stroke-width="3.4"/>
<path d="M44.1 90.2 q-2.3 -17.2 -5.7 -31.2"/>
<path d="M38.4 59.0 l0 8.1" stroke-width="3.4"/>
<path d="M113.1 80.2 q-1.0 -17.4 -2.4 -31.7"/>
<path d="M110.7 48.5 l0 8.2" stroke-width="3.4"/>
<path d="M148.6 104.8 q-1.0 -15.6 -2.4 -28.3"/>
<path d="M146.2 76.4 l0 7.4" stroke-width="3.4"/>
<path d="M173.3 88.8 q0.2 -12.1 0.6 -22.1"/>
<path d="M173.9 66.7 l0 5.7" stroke-width="3.4"/>
<path d="M28.0 142.0 q-1.3 -12.2 -3.4 -22.2"/>
<path d="M24.7 119.8 l0 5.8" stroke-width="3.4"/>
<path d="M67.6 133.9 q1.5 -12.3 3.8 -22.3"/>
<path d="M71.4 111.6 l0 5.8" stroke-width="3.4"/>
<path d="M119.3 141.3 q-1.8 -12.9 -4.4 -23.4"/>
<path d="M114.8 117.9 l0 6.1" stroke-width="3.4"/>
<path d="M154.0 144.8 q0.2 -14.5 0.6 -26.3"/>
<path d="M154.6 118.5 l0 6.8" stroke-width="3.4"/>
<path d="M198.3 142.5 q-1.3 -13.0 -3.1 -23.6"/>
<path d="M195.2 118.8 l0 6.1" stroke-width="3.4"/>
<path d="M7.3 171.0 q-1.1 -14.2 -2.7 -25.9"/>
<path d="M4.6 145.1 l0 6.7" stroke-width="3.4"/>
<path d="M48.9 185.7 q-2.4 -17.3 -5.9 -31.4"/>
<path d="M43.1 154.3 l0 8.2" stroke-width="3.4"/>
<path d="M89.3 165.3 q-1.2 -15.3 -3.1 -27.9"/>
<path d="M86.2 137.4 l0 7.3" stroke-width="3.4"/>
<path d="M124.3 166.1 q1.6 -17.1 4.1 -31.2"/>
<path d="M128.4 135.0 l0 8.1" stroke-width="3.4"/>
<path d="M166.8 187.6 q-1.1 -13.0 -2.8 -23.6"/>
<path d="M164.0 164.0 l0 6.1" stroke-width="3.4"/>
<path d="M55.0 217.1 q-0.3 -15.5 -0.6 -28.2"/>
<path d="M54.4 188.9 l0 7.3" stroke-width="3.4"/>
<path d="M96.6 214.0 q0.3 -13.3 0.7 -24.1"/>
<path d="M97.2 189.9 l0 6.3" stroke-width="3.4"/>
<path d="M134.5 227.4 q-2.0 -13.9 -4.9 -25.3"/>
<path d="M129.6 202.1 l0 6.6" stroke-width="3.4"/>
<path d="M147.9 206.7 q1.1 -12.7 2.7 -23.1"/>
<path d="M150.6 183.6 l0 6.0" stroke-width="3.4"/>
<path d="M196.9 209.5 q-0.8 -13.5 -2.1 -24.6"/>
<path d="M194.7 184.8 l0 6.4" stroke-width="3.4"/>
</g>
<g fill="none" stroke="#151f14" stroke-width="1.8" stroke-linecap="round" stroke-linejoin="round" opacity="0.4">
<path d="M7.7 35.7 q8.3 -5.3 16.6 0 q8.3 5.3 16.6 0"/>
<path d="M73.2 33.8 q7.6 -4.8 15.1 0 q7.6 4.8 15.1 0"/>
<path d="M168.5 37.9 q9.3 -5.9 18.6 0 q9.3 5.9 18.6 0"/>
<path d="M55.5 68.0 q9.9 -6.3 19.8 0 q9.9 6.3 19.8 0"/>
<path d="M129.2 67.6 q7.1 -4.6 14.2 0 q7.1 4.6 14.2 0"/>
<path d="M172.9 73.1 q8.5 -5.4 17.0 0 q8.5 5.4 17.0 0"/>
<path d="M-8.1 96.2 q7.7 -5.0 15.5 0 q7.7 5.0 15.5 0"/>
<path d="M109.5 125.3 q7.2 -4.6 14.5 0 q7.2 4.6 14.5 0"/>
<path d="M141.0 133.9 q8.6 -5.5 17.2 0 q8.6 5.5 17.2 0"/>
<path d="M46.3 178.2 q7.1 -4.6 14.2 0 q7.1 4.6 14.2 0"/>
<path d="M108.0 173.0 q7.4 -4.7 14.8 0 q7.4 4.7 14.8 0"/>
<path d="M153.6 144.3 q9.5 -6.1 19.0 0 q9.5 6.1 19.0 0"/>
<path d="M29.2 201.1 q9.2 -5.9 18.4 0 q9.2 5.9 18.4 0"/>
<path d="M72.8 203.0 q9.0 -5.7 18.0 0 q9.0 5.7 18.0 0"/>
<path d="M163.6 210.3 q7.1 -4.5 14.2 0 q7.1 4.5 14.2 0"/>
</g>
<style>.fill{fill:#151f14;stroke:none}</style>
</svg>