<svg xmlns="http://www.w3.org/2000/svg" viewBox="0 0 200 231" width="200" height="231" preserveAspectRatio="xMidYMid slice">
<defs><linearGradient id="g" x1="0" y1="0" x2=".55" y2="1"><stop offset="0" stop-color="#9c8f4e"/><stop offset=".55" stop-color="#7d7a3c"/><stop offset="1" stop-color="#5d5f2c"/></linearGradient></defs>
<rect width="200" height="231" fill="url(#g)"/>
<g fill="none" stroke="#4a4a1f" stroke-width="1.9" stroke-linecap="round" stroke-linejoin="round" opacity="0.5">
<path d="M36.7 20.0 q-3.4 -8.7 -6.8 -14.5"/>
<path d="M36.7 20.0 q0.0 -9.3 0.0 -15.6"/>
<path d="M36.7 20.0 q3.4 -7.7 6.8 -12.8"/>
<path d="M47.8 18.5 q-3.4 -8.1 -6.7 -13.6"/>
<path d="M47.8 18.5 q0.0 -9.6 0.0 -16.0"/>
<path d="M47.8 18.5 q3.4 -7.6 6.7 -12.6"/>
<path d="M86.8 8.6 q-3.8 -8.3 -7.5 -13.8"/>
<path d="M86.8 8.6 q0.0 -9.8 0.0 -16.4"/>
<path d="M86.8 8.6 q3.8 -9.1 7.5 -15.2"/>
<path d="M131.5 2.9 q-3.5 -9.8 -6.9 -16.3"/>
<path d="M131.5 2.9 q0.0 -9.8 0.0 -16.4"/>
<path d="M131.5 2.9 q3.5 -8.9 6.9 -14.8"/>
<path d="M165.0 19.8 q-3.9 -11.0 -7.7 -18.4"/>
<path d="M165.0 19.8 q0.0 -8.5 0.0 -14.2"/>
<path d="M165.0 19.8 q3.9 -7.7 7.7 -12.9"/>
<path d="M34.2 51.0 q-4.2 -10.5 -8.4 -17.6"/>
<path d="M34.2 51.0 q0.0 -9.6 0.0 -15.9"/>
<path d="M34.2 51.0 q4.2 -10.1 8.4 -16.8"/>
<path d="M78.3 52.8 q-3.1 -8.8 -6.2 -14.7"/>
<path d="M78.3 52.8 q0.0 -6.9 0.0 -11.5"/>
<path d="M78.3 52.8 q3.1 -6.5 6.2 -10.9"/>
<path d="M109.9 38.4 q-3.7 -8.3 -7.4 -13.9"/>
<path d="M109.9 38.4 q0.0 -9.2 0.0 -15.3"/>
<path d="M109.9 38.4 q3.7 -9.7 7.4 -16.1"/>
<path d="M174.5 62.9 q-3.8 -7.9 -7.6 -13.2"/>
<path d="M174.5 62.9 q0.0 -8.0 0.0 -13.3"/>
<path d="M174.5 62.9 q3.8 -10.8 7.6 -18.1"/>
<path d="M187.3 50.2 q-3.5 -10.6 -7.1 -17.6"/>
<path d="M187.3 50.2 q0.0 -9.5 0.0 -15.8"/>
<path d="M187.3 50.2 q3.5 -8.6 7.1 -14.4"/>
<path d="M35.2 81.8 q-4.2 -10.2 -8.4 -17.0"/>
<path d="M35.2 81.8 q0.0 -10.1 0.0 -16.8"/>
<path d="M35.2 81.8 q4.2 -8.6 8.4 -14.3"/>
<path d="M57.0 72.4 q-3.5 -8.8 -6.9 -14.6"/>
<path d="M57.0 72.4 q0.0 -9.6 0.0 -16.0"/>
<path d="M57.0 72.4 q3.5 -8.4 6.9 -14.1"/>
<path d="M91.0 93.7 q-4.1 -12.1 -8.2 -20.2"/>
<path d="M91.0 93.7 q0.0 -11.9 0.0 -19.9"/>
<path d="M91.0 93.7 q4.1 -11.5 8.2 -19.1"/>
<path d="M141.6 79.4 q-3.1 -7.5 -6.2 -12.5"/>
<path d="M141.6 79.4 q0.0 -9.1 0.0 -15.1"/>
<path d="M141.6 79.4 q3.1 -8.1 6.2 -13.5"/>
<path d="M173.0 78.3 q-3.3 -7.6 -6.7 -12.7"/>
<path d="M173.0 78.3 q0.0 -7.4 0.0 -12.3"/>
<path d="M173.0 78.3 q3.3 -7.6 6.7 -12.7"/>
<path d="M45.2 126.2 q-3.6 -9.2 -7.2 -15.3"/>
<path d="M45.2 126.2 q0.0 -8.9 0.0 -14.8"/>
<path d="M45.2 126.2 q3.6 -10.5 7.2 -17.5"/>
<path d="M95.9 109.3 q-3.6 -8.3 -7.2 -13.8"/>
<path d="M95.9 109.3 q0.0 -10.7 0.0 -17.8"/>
<path d="M95.9 109.3 q3.6 -7.6 7.2 -12.7"/>
<path d="M126.6 114.9 q-3.5 -7.7 -7.0 -12.9"/>
<path d="M126.6 114.9 q0.0 -7.2 0.0 -12.0"/>
<path d="M126.6 114.9 q3.5 -7.4 7.0 -12.4"/>
<path d="M160.3 124.0 q-3.5 -9.0 -7.0 -14.9"/>
<path d="M160.3 124.0 q0.0 -9.1 0.0 -15.2"/>
<path d="M160.3 124.0 q3.5 -7.0 7.0 -11.7"/>
<path d="M190.9 102.1 q-3.1 -6.9 -6.1 -11.5"/>
<path d="M190.9 102.1 q0.0 -6.5 0.0 -10.8"/>
<path d="M190.9 102.1 q3.1 -9.0 6.1 -15.1"/>
<path d="M28.3 143.5 q-3.6 -7.7 -7.3 -12.9"/>
<path d="M28.3 143.5 q0.0 -9.0 0.0 -15.1"/>
<path d="M28.3 143.5 q3.6 -7.5 7.3 -12.5"/>
<path d="M64.1 136.7 q-3.6 -8.9 -7.2 -14.9"/>
<path d="M64.1 136.7 q0.0 -10.2 0.0 -17.0"/>
<path d="M64.1 136.7 q3.6 -10.4 7.2 -17.3"/>
<path d="M110.2 155.6 q-3.9 -9.2 -7.9 -15.3"/>
<path d="M110.2 155.6 q0.0 -11.5 0.0 -19.2"/>
<path d="M110.2 155.6 q3.9 -11.1 7.9 -18.5"/>
<path d="M139.9 159.2 q-3.5 -8.0 -6.9 -13.4"/>
<path d="M139.9 159.2 q0.0 -9.6 0.0 -16.0"/>
<path d="M139.9 159.2 q3.5 -8.4 6.9 -14.0"/>
<path d="M169.9 147.5 q-3.3 -7.1 -6.6 -11.8"/>
<path d="M169.9 147.5 q0.0 -8.9 0.0 -14.9"/>
<path d="M169.9 147.5 q3.3 -7.1 6.6 -11.8"/>
<path d="M43.6 171.0 q-3.4 -6.9 -6.8 -11.5"/>
<path d="M43.6 171.0 q0.0 -8.9 0.0 -14.8"/>
<path d="M43.6 171.0 q3.4 -7.6 6.8 -12.6"/>
<path d="M93.8 178.4 q-3.4 -9.5 -6.7 -15.8"/>
<path d="M93.8 178.4 q0.0 -9.9 0.0 -16.6"/>
<path d="M93.8 178.4 q3.4 -8.1 6.7 -13.5"/>
<path d="M117.9 189.3 q-3.6 -9.5 -7.3 -15.9"/>
<path d="M117.9 189.3 q0.0 -8.1 0.0 -13.5"/>
<path d="M117.9 189.3 q3.6 -8.3 7.3 -13.8"/>
<path d="M175.9 172.4 q-3.6 -10.0 -7.1 -16.7"/>
<path d="M175.9 172.4 q0.0 -7.3 0.0 -12.1"/>
<path d="M175.9 172.4 q3.6 -8.2 7.1 -13.7"/>
<path d="M204.0 171.3 q-3.1 -6.3 -6.2 -10.5"/>
<path d="M204.0 171.3 q0.0 -6.8 0.0 -11.3"/>
<path d="M204.0 171.3 q3.1 -8.4 6.2 -14.0"/>
<path d="M14.4 228.4 q-3.1 -6.3 -6.2 -10.5"/>
<path d="M14.4 228.4 q0.0 -8.5 0.0 -14.2"/>
<path d="M14.4 228.4 q3.1 -8.1 6.2 -13.5"/>
<path d="M45.9 202.8 q-3.7 -8.0 -7.5 -13.4"/>
<path d="M45.9 202.8 q0.0 -9.6 0.0 -16.1"/>
<path d="M45.9 202.8 q3.7 -9.9 7.5 -16.6"/>
<path d="M98.3 214.6 q-3.6 -10.2 -7.2 -17.1"/>
<path d="M98.3 214.6 q0.0 -7.2 0.0 -12.0"/>
<path d="M98.3 214.6 q3.6 -8.2 7.2 -13.7"/>
<path d="M145.6 218.1 q-4.1 -11.3 -8.3 -18.9"/>
<path d="M145.6 218.1 q0.0 -12.2 0.0 -20.3"/>
<path d="M145.6 218.1 q4.1 -12.0 8.3 -20.0"/>
<path d="M194.9 220.0 q-3.8 -10.4 -7.6 -17.3"/>
<path d="M194.9 220.0 q0.0 -8.6 0.0 -14.3"/>
<path d="M194.9 220.0 q3.8 -8.6 7.6 -14.3"/>
</g>
<style>.fill{fill:#4a4a1f;stroke:none}</style>
</svg>